<?xml version="1.0" encoding="UTF-8" standalone="no"?>
<!-- Created with Inkscape (http://www.inkscape.org/) -->

<svg
   xmlns:dc="http://purl.org/dc/elements/1.1/"
   xmlns:cc="http://creativecommons.org/ns#"
   xmlns:rdf="http://www.w3.org/1999/02/22-rdf-syntax-ns#"
   xmlns:svg="http://www.w3.org/2000/svg"
   xmlns="http://www.w3.org/2000/svg"
   xmlns:xlink="http://www.w3.org/1999/xlink"
   xmlns:sodipodi="http://sodipodi.sourceforge.net/DTD/sodipodi-0.dtd"
   xmlns:inkscape="http://www.inkscape.org/namespaces/inkscape"
   width="831.56"
   height="459.59"
   id="svg2"
   sodipodi:version="0.32"
   inkscape:version="0.48.4 r9939"
   version="1.0"
   sodipodi:docname="mozilla.svg"
   inkscape:output_extension="org.inkscape.output.svg.inkscape"
   inkscape:export-filename="/home/nuke/Dropbox/Public/mozilla/cabeceras/mh-banner.png"
   inkscape:export-xdpi="86.483879"
   inkscape:export-ydpi="86.483879">
  <defs
     id="defs4">
    <linearGradient
       inkscape:collect="always"
       id="linearGradient3864">
      <stop
         style="stop-color:#000000;stop-opacity:1;"
         offset="0"
         id="stop3866" />
      <stop
         style="stop-color:#000000;stop-opacity:0;"
         offset="1"
         id="stop3868" />
    </linearGradient>
    <inkscape:perspective
       sodipodi:type="inkscape:persp3d"
       inkscape:vp_x="0 : 526.18109 : 1"
       inkscape:vp_y="0 : 1000 : 0"
       inkscape:vp_z="744.09448 : 526.18109 : 1"
       inkscape:persp3d-origin="372.04724 : 350.78739 : 1"
       id="perspective10" />
    <inkscape:perspective
       sodipodi:type="inkscape:persp3d"
       inkscape:vp_x="0 : 526.18109 : 1"
       inkscape:vp_y="0 : 1000 : 0"
       inkscape:vp_z="744.09448 : 526.18109 : 1"
       inkscape:persp3d-origin="372.04724 : 350.78739 : 1"
       id="perspective2397" />
    <inkscape:perspective
       id="perspective2447"
       inkscape:persp3d-origin="372.04724 : 350.78739 : 1"
       inkscape:vp_z="744.09448 : 526.18109 : 1"
       inkscape:vp_y="0 : 1000 : 0"
       inkscape:vp_x="0 : 526.18109 : 1"
       sodipodi:type="inkscape:persp3d" />
    <inkscape:perspective
       id="perspective2394"
       inkscape:persp3d-origin="372.04724 : 350.78739 : 1"
       inkscape:vp_z="744.09448 : 526.18109 : 1"
       inkscape:vp_y="0 : 1000 : 0"
       inkscape:vp_x="0 : 526.18109 : 1"
       sodipodi:type="inkscape:persp3d" />
    <radialGradient
       inkscape:collect="always"
       xlink:href="#linearGradient3864"
       id="radialGradient3872"
       gradientUnits="userSpaceOnUse"
       gradientTransform="matrix(1,0,0,0.56796282,0,120.57068)"
       cx="99.40844"
       cy="279.0748"
       fx="99.40844"
       fy="279.0748"
       r="92.189125" />
  </defs>
  <sodipodi:namedview
     id="base"
     pagecolor="#ffffff"
     bordercolor="#666666"
     borderopacity="1.0"
     inkscape:pageopacity="0.0"
     inkscape:pageshadow="2"
     inkscape:zoom="0.67528698"
     inkscape:cx="252.65807"
     inkscape:cy="170.16816"
     inkscape:document-units="px"
     inkscape:current-layer="layer1"
     showgrid="false"
     inkscape:window-width="1288"
     inkscape:window-height="712"
     inkscape:window-x="76"
     inkscape:window-y="27"
     fit-margin-top="0"
     fit-margin-left="0"
     fit-margin-right="0"
     fit-margin-bottom="0"
     inkscape:window-maximized="0"
     showguides="true"
     inkscape:guide-bbox="true">
    <inkscape:grid
       type="xygrid"
       id="grid3770"
       empspacing="5"
       visible="true"
       enabled="true"
       snapvisiblegridlinesonly="true" />
  </sodipodi:namedview>
  <metadata
     id="metadata7">
    <rdf:RDF>
      <cc:Work
         rdf:about="">
        <dc:format>image/svg+xml</dc:format>
        <dc:type
           rdf:resource="http://purl.org/dc/dcmitype/StillImage" />
        <dc:title />
      </cc:Work>
    </rdf:RDF>
  </metadata>
  <g
     inkscape:label="Capa 1"
     inkscape:groupmode="layer"
     id="layer1"
     transform="translate(-313.4756,266.04355)">
    <g
       transform="matrix(0.67535214,0,0,0.67535214,316.79025,-192.43911)"
       id="g2398"
       inkscape:label="Capa 1"
       style="fill:#484848;fill-opacity:1">
      <g
         transform="matrix(1.8359326,0,0,2.1142857,67.820519,163.28621)"
         inkscape:label="Capa 1"
         id="g2400"
         style="fill:#484848;fill-opacity:1">
        <g
           id="g2453"
           transform="translate(-43.189372,4.9501659e-7)"
           style="fill:#484848;fill-opacity:1">
          <path
             style="fill:#484848;fill-opacity:1"
             d="M 12.253195,99.53485 C 8.6805048,95.23003 8.6378248,82.099033 12.170075,73.967073 c 1.0413,-2.39728 2.15902,-4.30259 2.50513,-4.73627 0.36844,-0.46165 1.86921,-2.43575 4.547889,-4.84411 8.57506,-7.709713 32.09486,-17.560943 41.92673,-17.560943 1.676335,0 3.591665,-0.96558 4.705955,-0.67418 6.53136,1.70799 30.102859,-11.001959 45.723881,-23.729919 7.68978,-6.26561 14.55812,-12.8711103 13.98216,-13.4470803 -0.28538,-0.28537 -2.19811,1.0365403 -4.25052,2.9375803 -2.0524,1.90105 -5.02163,4.57181 -6.59828,5.93502 l -2.86663,2.47858 0.69764,-3.5 c 0.38371,-1.925 2.20847,-5.75 4.05503,-8.5000003 3.56829,-5.31408 5.86261,-10.4513202 5.03656,-11.2773702 -0.275,-0.275 -0.99347,0.79791 -1.59659,2.38425021 -1.42305,3.74287999 -5.74478,9.39311999 -7.18458,9.39311999 -0.61788,0 -0.14498,-1.0415 1.0509,-2.31445 5.14324,-5.47473 0.65855,-13.6564402 -7.50995,-13.7008602 -3.56483,-0.01939 -4.85781,-0.88164 -5.78809,-3.8599195 -0.788952,-2.52581 0.1605,-2.37131 3.61916,0.58894 0.90575,0.7752195 4.16825,1.6697295 7.25,1.9877995 5.18734,0.53538 5.60319,0.42454 5.60319,-1.49351 0,-1.1606295 -1.31939,-3.0112995 -3,-4.2079995 -3.28916,-2.34208 -3.76194,-4.12275 -1.57625,-5.93671 1.15517,-0.95871 1.90972,-0.46643 4,2.60969 1.41694,2.08521 2.57625,4.36183 2.57625,5.05916 0,0.69732 0.45,1.26786 1,1.26786 0.55,0 1,-1.0699 1,-2.37755 0,-3.16828 2.77117,-5.59636 4.0609,-3.55815 1.57473,2.48861 1.02377,4.57609 -1.5128,5.73183 -2.38238,1.08549 -6.20102,6.8842795 -5.19557,7.8897295 0.275,0.275 1.2158,-0.8842 2.09066,-2.576 1.80483,-3.49016 6.62893,-6.3825895 9.87449,-5.9205395 1.82211,0.2594 2.1638,0.92618 2.07013,4.0396195 -0.0617,2.05092 -1.23903,6.00586 -2.61628,8.78876021 -1.37724,2.78289999 -2.00175,4.89600999 -1.3878,4.69580999 1.63719,-0.53387 5.54985,-10.6828502 5.58555,-14.4882602 0.0243,-2.5874695 -0.49396,-3.4742295 -2.46928,-4.2252495 -2.68875,-1.02226 -2.97339,-2.50104 -1.53987,-8 0.50183,-1.925 1.75895,-6.72727 2.7936,-10.67171 2.37038,-9.036711 5.06114,-12.96241 12.13203,-17.70006 l 5.61424,-3.76167 0.3213,3.31672 c 0.48974,5.05563 2.20924,5.96351 2.0173,1.06513 -0.0895,-2.28411 0.44577,-4.88612 1.18948,-5.782241 0.74372,-0.89612 5.12527,-3.43866 9.73678,-5.65008 9.3341,-4.47611 13.38111,-4.62961 20.56369,-0.77998 2.01531,1.08014 5.03676,1.96389 6.71434,1.96389 2.3746,0 3.42741,0.68438 4.75362,3.09005 0.93692,1.699531 4.06462,5.637031 6.95045,8.750001 6.02349,6.497599 6.9713,8.88905 5.08383,12.82712 -1.93654,4.04046 -5.68184,5.42458 -16.41038,6.06465 -10.2189,0.60967 -12.2706,1.7736 -2.41754,1.37147 5.09027,-0.20774 5.89811,-0.0088 5.38583,1.32615 -0.45009,1.17294 0.0393,1.57056 1.93288,1.57056 1.39456,0 3.24271,0.70715 4.10699,1.57143 3.97517,3.97516 -0.30646,4.70755 -5.42857,0.92857 -1.86371,-1.375 -3.89513,-2.5 -4.51428,-2.5 -0.61915,0 -2.96576,1.575 -5.21469,3.5 -4.85571,4.15631 -6.77868,4.32334 -11.6574,1.01255 -5.13141,-3.48227 -8.14306,-4.05089 -11.12092,-2.09973 -2.87687,1.885 -3.1522,4.77388 -1.30657,13.7095295 1.11728,5.4093 1.02256,6.1491 -1.63121,12.7412102 -3.15915,7.8474903 -6.86707,11.8577403 -13.55493,14.6601603 -4.09533,1.71608 -10.0711,5.47628 -8.70297,5.47628 0.31171,0 4.23211,-1.82901 8.712,-4.06447 7.7505,-3.86748 8.26267,-3.98753 10.56811,-2.47694 2.51637,1.64879 3.17833,5.20761 1.55449,8.35715 -0.47761,0.92634 -1.1886,3.48426 -1.57997,5.68426 l -0.71159,3.999999 3.69499,-3.499999 c 3.46038,-3.27777 3.64789,-3.34127 2.95328,-1 -0.40794,1.375 -1.3597,3.71515 -2.11503,5.200339 -1.86026,3.65782 -1.80129,3.79966 1.57964,3.79966 3.7154,0 8.04705,1.92556 8.04705,3.57718 0,1.97492 -2.17066,2.23812 -6.37573,0.7731 -5.3433,-1.86158 -5.42492,-1.78167 -1.94043,1.89972 2.8332,2.9933 5.31616,6.81583 5.31616,8.18426 0,0.31116 -0.88329,0.56574 -1.96287,0.56574 -1.07958,0 -3.77192,-1.88267 -5.98296,-4.18371 -2.21105,-2.30104 -4.28589,-3.91791 -4.61076,-3.59304 -0.32487,0.32488 -0.93217,3.10717 -1.34955,6.18289 -0.81914,6.036243 -1.37253,7.157703 -3.02733,6.134983 -1.5996,-0.98861 -1.28408,-5.785523 0.55307,-8.408413 1.28065,-1.82839 1.38978,-2.81671 0.52144,-4.72251 -1.4504,-3.18329 -3.69772,-3.05158 -5.79802,0.3398 -2.48032,4.00502 -4.34208,5.25367 -7.78415,5.22069 l -3.05887,-0.02932 3.09898,-2.72068 c 1.70444,-1.49638 4.12223,-3.55112 5.37285,-4.56609 1.92777,-1.56452 2.18594,-2.4869 1.69618,-6.0601 -0.37028,-2.70144 -0.0766,-5.180489 0.81785,-6.904599 1.87579,-3.61559 0.59253,-3.4662 -7.24867,0.84387 -5.76552,3.169119 -7.14017,3.515809 -13.322,3.359799 -5.98035,-0.15092 -7.43344,0.18362 -10.97364,2.52641 -2.24428,1.4852 -9.8526,2.81856 -10.43114,2.62571 -0.57854,-0.19284 7.70977,-3.90415 12.92349,-5.94754 5.21203,-2.042729 0.53212,-1.859859 -8.14937,3.64328 -8.681492,5.50314 -16.684532,10.4575 -17.784532,11.00968 -2.92505,1.46834 -17.745629,4.65995 -36.000004,7.752593 -20.10136,3.40555 -23.45409,4.63351 -30.52511,11.18003 -8.316019,7.69917 -12.174779,18.02081 -10.133519,27.105767 0.95016,4.22885 0.32581,5.3218 -1.66783,2.9196 z M 179.07966,-26.977259 c 0,-0.44166 -1.6875,-0.79438 -3.75,-0.78381 -2.0625,0.01056 -5.31094,-0.31152 -7.21875,-0.71573 -2.15605,-0.45682 -3.10214,-0.38146 -2.5,0.19913 1.77188,1.70845 13.46875,2.83778 13.46875,1.30041 z m 8.36514,-8.26957 c 1.55363,-1.22208 2.63486,-3.06868 2.63486,-4.5 0,-2.076131 -0.4743,-2.427421 -3.27749,-2.427421 -1.80263,0 -4.27763,0.70052 -5.5,1.556711 -2.10855,1.47688 -2.99492,5.33755 -1.55584,6.77663 1.31949,1.31949 5.11484,0.62637 7.69847,-1.40592 z m -7.02931,-0.49463 c -0.33077,-0.86197 -0.0916,-2.07697 0.53139,-2.7 0.84371,-0.84371 1.13278,-0.44378 1.13278,1.56721 0,3.00871 -0.74874,3.51836 -1.66417,1.13279 z m 4.37155,-1.44375 c -0.71216,-2.7233 -0.14335,-3.989041 1.79262,-3.989041 2.31698,0 2.58631,1.671851 0.65379,4.058411 l -1.8355,2.26674 -0.61091,-2.33611 z m -45.08719,-16.05486 c -1.74871,-2.960331 -1.74846,-3.134961 0.007,-5.075241 1.00017,-1.10518 3.06811,-2.74758 4.59542,-3.64978 3.42933,-2.02576 3.48959,-2.81347 0.27692,-3.6198 -1.61415,-0.40513 -2.5,-1.32939 -2.5,-2.60841 0,-2.46873 0.82457,-2.4648 4,0.01905 4.27394,3.34313 5.53787,2.0792 2,-2 -1.91181,-2.20434 -2.68592,-4.999999 -1.38448,-4.999999 0.33854,0 2.29931,1.842029 4.35726,4.093399 l 3.74173,4.0934 0.66662,-4.16877 c 0.87654,-5.481629 3.24695,-4.936779 2.80042,0.64369 -0.39633,4.95304 1.57621,7.13102 4.69461,5.18355 2.15991,-1.34889 3.76587,-0.69311 2.66496,1.0882 -0.36254,0.5866 -2.01218,1.06653 -3.66588,1.06653 -4.22956,0 -6.62095,1.44418 -12.60282,7.61089 -2.87517,2.964011 -5.81565,5.389111 -6.5344,5.389111 -0.71874,0 -2.12177,-1.37962 -3.11783,-3.06582 z"
             id="path2463"
             sodipodi:nodetypes="csssssssscccsssssssssssssssssssssssssssscccssssssssssssssssssssssssscccssssssssssssssscccsssssssssssssccsssccssssccssccsccccssssssscccssssssc"
             inkscape:connector-curvature="0" />
        </g>
      </g>
    </g>
    <flowRoot
       xml:space="preserve"
       id="flowRoot2992"
       style="font-size:72px;font-style:normal;font-variant:normal;font-weight:normal;font-stretch:normal;text-align:start;line-height:93.00000072%;letter-spacing:0px;word-spacing:-10.13000011px;text-anchor:start;fill:#000000;fill-opacity:1;stroke:none;font-family:Meta-Bold;-inkscape-font-specification:Meta-Bold"
       transform="matrix(1.5744118,0,0,1.5744118,668.54956,-517.46674)"><flowRegion
         id="flowRegion2994"
         style="fill:url(#radialGradient3872);fill-opacity:1"><rect
           id="rect2996"
           width="902.72729"
           height="126.3636"
           x="-52.727276"
           y="230.90907"
           ry="0"
           style="font-size:72px;font-style:normal;font-variant:normal;font-weight:normal;font-stretch:normal;text-align:start;line-height:93.00000072%;word-spacing:-10.13000011px;text-anchor:start;fill:#000000;fill-opacity:1;stroke:none;font-family:Meta-Bold;-inkscape-font-specification:Meta-Bold" /></flowRegion><flowPara
         id="flowPara3004"
         style="font-size:72px;font-style:normal;font-variant:normal;font-weight:normal;font-stretch:normal;text-align:start;line-height:93.00000072%;letter-spacing:0.28999999px;word-spacing:-7px;text-anchor:start;fill:#484848;fill-opacity:1;stroke:none;font-family:Meta-Bold;-inkscape-font-specification:Meta-Bold">mozilla</flowPara></flowRoot>    <text
       xml:space="preserve"
       style="font-size:62.97647095px;font-style:normal;font-weight:normal;line-height:125%;letter-spacing:0px;word-spacing:0px;fill:#000000;fill-opacity:1;stroke:none;font-family:Sans;-inkscape-font-specification:Meta-Normal"
       x="896.83276"
       y="4.373508"
       id="text3766"
       sodipodi:linespacing="125%"><tspan
         sodipodi:role="line"
         id="tspan3768"
         x="896.83276"
         y="4.373508"
         style="font-size:62.97647095px;font-style:normal;font-variant:normal;font-weight:normal;font-stretch:normal;fill:#757470;fill-opacity:1;font-family:Meta-Normal;-inkscape-font-specification:Meta-Normal">hispano</tspan></text>
  </g>
</svg>
