<?xml version="1.0" encoding="UTF-8" standalone="no"?>
<!-- Created with Inkscape (http://www.inkscape.org/) -->

<svg
   xmlns:dc="http://purl.org/dc/elements/1.1/"
   xmlns:cc="http://creativecommons.org/ns#"
   xmlns:rdf="http://www.w3.org/1999/02/22-rdf-syntax-ns#"
   xmlns:svg="http://www.w3.org/2000/svg"
   xmlns="http://www.w3.org/2000/svg"
   xmlns:xlink="http://www.w3.org/1999/xlink"
   xmlns:sodipodi="http://sodipodi.sourceforge.net/DTD/sodipodi-0.dtd"
   xmlns:inkscape="http://www.inkscape.org/namespaces/inkscape"
   version="1.2"
   width="500"
   height="500"
   id="svg2455"
   inkscape:version="0.48.3.1 r9886"
   sodipodi:docname="Logo_mono_OSM.svg"
   inkscape:export-filename="/home/drmx/Рабочий стол/сетка.png"
   inkscape:export-xdpi="120.95238"
   inkscape:export-ydpi="120.95238">
  <sodipodi:namedview
     pagecolor="#ffffff"
     bordercolor="#666666"
     borderopacity="1"
     objecttolerance="10"
     gridtolerance="10"
     guidetolerance="10"
     inkscape:pageopacity="1"
     inkscape:pageshadow="2"
     inkscape:window-width="1301"
     inkscape:window-height="744"
     id="namedview4422"
     showgrid="false"
     inkscape:zoom="0.35355339"
     inkscape:cx="325.41162"
     inkscape:cy="102.83704"
     inkscape:window-x="65"
     inkscape:window-y="24"
     inkscape:window-maximized="1"
     inkscape:current-layer="svg2455" />
  <defs
     id="defs3">
    <marker
       inkscape:stockid="DotS"
       orient="auto"
       refY="0"
       refX="0"
       id="DotS"
       style="overflow:visible">
      <path
         id="path4217"
         d="m -2.5,-1 c 0,2.76 -2.24,5 -5,5 -2.76,0 -5,-2.24 -5,-5 0,-2.76 2.24,-5 5,-5 2.76,0 5,2.24 5,5 z"
         style="fill-rule:evenodd;stroke:#000000;stroke-width:1pt"
         transform="matrix(0.2,0,0,0.2,1.48,0.2)"
         inkscape:connector-curvature="0" />
    </marker>
    <inkscape:perspective
       sodipodi:type="inkscape:persp3d"
       inkscape:vp_x="0 : 24 : 1"
       inkscape:vp_y="0 : 1000 : 0"
       inkscape:vp_z="48 : 24 : 1"
       inkscape:persp3d-origin="24 : 16 : 1"
       id="perspective4424" />
    <linearGradient
       id="linearGradient2419">
      <stop
         id="stop2420"
         style="stop-color:#000000;stop-opacity:0.50515461"
         offset="0" />
      <stop
         id="stop2421"
         style="stop-color:#000000;stop-opacity:0"
         offset="1" />
    </linearGradient>
    <linearGradient
       x1="156.33752"
       y1="184.92068"
       x2="264.56921"
       y2="184.92068"
       id="linearGradient2422"
       xlink:href="#linearGradient2419"
       gradientUnits="userSpaceOnUse"
       gradientTransform="scale(1.19593,0.836169)" />
    <linearGradient
       id="linearGradient2411">
      <stop
         id="stop2412"
         style="stop-color:#ffffff;stop-opacity:1"
         offset="0" />
      <stop
         id="stop2413"
         style="stop-color:#ffffff;stop-opacity:0"
         offset="1" />
    </linearGradient>
    <radialGradient
       cx="212.59842"
       cy="70.866119"
       r="35.433071"
       fx="212.59842"
       fy="70.866119"
       id="radialGradient2415"
       xlink:href="#linearGradient2411"
       gradientUnits="userSpaceOnUse" />
    <linearGradient
       x1="414.13153"
       y1="240.14357"
       x2="302.99097"
       y2="240.80186"
       id="linearGradient1779"
       xlink:href="#linearGradient1767"
       gradientUnits="userSpaceOnUse"
       gradientTransform="scale(0.689104,1.45116)" />
    <linearGradient
       id="linearGradient1767">
      <stop
         id="stop1768"
         style="stop-color:#3f3318;stop-opacity:1"
         offset="0" />
      <stop
         id="stop1769"
         style="stop-color:#815f0e;stop-opacity:1"
         offset="1" />
    </linearGradient>
    <linearGradient
       x1="299.37338"
       y1="252.27031"
       x2="411.72696"
       y2="252.27031"
       id="linearGradient1778"
       xlink:href="#linearGradient1767"
       gradientUnits="userSpaceOnUse"
       gradientTransform="matrix(0.697599,0,0,1.47183,0,-11.82638)" />
    <linearGradient
       id="linearGradient1754">
      <stop
         id="stop1755"
         style="stop-color:#747474;stop-opacity:1"
         offset="0" />
      <stop
         id="stop1757"
         style="stop-color:#bebebe;stop-opacity:1"
         offset="0.5" />
      <stop
         id="stop1759"
         style="stop-color:#d5d5d5;stop-opacity:1"
         offset="0.625" />
      <stop
         id="stop1758"
         style="stop-color:#818181;stop-opacity:1"
         offset="0.75" />
      <stop
         id="stop1756"
         style="stop-color:#c3c3c3;stop-opacity:1"
         offset="1" />
    </linearGradient>
    <linearGradient
       x1="150.49463"
       y1="42.808048"
       x2="345.53265"
       y2="242.17987"
       id="linearGradient1777"
       xlink:href="#linearGradient1754"
       gradientUnits="userSpaceOnUse"
       gradientTransform="scale(1.000071,0.999929)" />
    <pattern
       patternUnits="userSpaceOnUse"
       width="28.945312"
       height="33.076172"
       patternTransform="translate(190.4901,70.84341)"
       id="pattern2568">
      <text
         xml:space="preserve"
         style="font-size:12.000000;font-style:normal;font-weight:normal;fill:#000000;fill-opacity:1.0000000;stroke:none;stroke-width:1.0000000pt;stroke-linecap:butt;stroke-linejoin:miter;stroke-opacity:1.0000000;font-family:Bitstream Vera Sans"
         x="189.69904"
         y="67.749657"
         id="text2569"
         transform="translate(-190.4901,-70.84341)"><tspan
           id="tspan2570"
           x="189.69904"
           y="67.749657" /><tspan
           id="tspan2576"
           x="189.69904"
           y="79.749657">0010</tspan><tspan
           id="tspan2578"
           x="189.69904"
           y="91.749657">0100</tspan><tspan
           id="tspan2580"
           x="189.69904"
           y="103.74966">0111</tspan><tspan
           id="tspan2582"
           x="189.69904"
           y="115.74966" /></text>
    </pattern>
    <pattern
       patternUnits="userSpaceOnUse"
       width="32.232422"
       height="37.876175"
       patternTransform="translate(183.7668,59.46841)"
       id="pattern2606">
      <text
         xml:space="preserve"
         style="font-size:12.000000;font-style:normal;font-weight:bold;fill:#000000;fill-opacity:1.0000000;stroke:none;stroke-width:1.0000000pt;stroke-linecap:butt;stroke-linejoin:miter;stroke-opacity:1.0000000;font-family:Bitstream Vera Sans;font-stretch:normal;font-variant:normal;text-anchor:middle;writing-mode:lr;"
         x="189.69904"
         y="67.749657"
         id="text2607"
         transform="translate(-173.5858,-58.84341)"><tspan
           x="189.69904"
           y="67.749657"
           id="tspan2608">0010</tspan><tspan
           x="189.69904"
           y="82.149657"
           id="tspan2610">0100</tspan><tspan
           x="189.69904"
           y="96.549658"
           id="tspan2612">0111</tspan></text>
    </pattern>
    <pattern
       patternUnits="userSpaceOnUse"
       width="32.232422"
       height="28.276169"
       patternTransform="translate(183.7668,59.46841)"
       id="pattern2623">
      <text
         xml:space="preserve"
         style="font-size:12.000000;font-style:normal;font-variant:normal;font-weight:bold;font-stretch:normal;fill:#000000;fill-opacity:1.0000000;stroke:none;stroke-width:1.0000000pt;stroke-linecap:butt;stroke-linejoin:miter;stroke-opacity:1.0000000;font-family:Bitstream Vera Sans;text-anchor:middle;writing-mode:lr;"
         x="189.69904"
         y="67.749657"
         id="text2624"
         transform="translate(-173.5858,-58.84341)"><tspan
           x="189.69904"
           y="67.749657"
           id="tspan2625">0010</tspan><tspan
           x="189.69904"
           y="77.349657"
           id="tspan2627">0100</tspan><tspan
           x="189.69904"
           y="86.949657"
           id="tspan2629">0111</tspan></text>
    </pattern>
    <pattern
       patternUnits="userSpaceOnUse"
       width="32.232422"
       height="25.876175"
       patternTransform="translate(183.7668,59.46841)"
       id="pattern2639">
      <text
         xml:space="preserve"
         style="font-size:12.000000;font-style:normal;font-variant:normal;font-weight:bold;font-stretch:normal;fill:#000000;fill-opacity:1.0000000;stroke:none;stroke-width:1.0000000pt;stroke-linecap:butt;stroke-linejoin:miter;stroke-opacity:1.0000000;font-family:Bitstream Vera Sans;text-anchor:middle;writing-mode:lr;"
         x="189.69904"
         y="67.749657"
         id="text2640"
         transform="translate(-173.5858,-58.84341)"><tspan
           x="189.69904"
           y="67.749657"
           id="tspan2641">0010</tspan><tspan
           x="189.69904"
           y="76.149656"
           id="tspan2643">0100</tspan><tspan
           x="189.69904"
           y="84.549656"
           id="tspan2645">0111</tspan></text>
    </pattern>
    <pattern
       patternUnits="userSpaceOnUse"
       width="96.697266"
       height="77.628510"
       patternTransform="translate(151.5402,41.65591)"
       id="pattern2692">
      <text
         xml:space="preserve"
         style="font-size:36.000000;font-style:normal;font-variant:normal;font-weight:bold;font-stretch:normal;fill:#000000;fill-opacity:1.0000000;stroke:none;stroke-width:1.0000000pt;stroke-linecap:butt;stroke-linejoin:miter;stroke-opacity:1.0000000;font-family:Bitstream Vera Sans;text-anchor:middle;writing-mode:lr;"
         x="189.69904"
         y="67.749657"
         id="text2693"
         transform="translate(-141.3592,-41.03091)"><tspan
           x="189.69904"
           y="67.749657"
           id="tspan2694">0010</tspan><tspan
           x="189.69904"
           y="92.949656"
           id="tspan2696">0100</tspan><tspan
           x="189.69904"
           y="118.14965"
           id="tspan2698">0111</tspan></text>
    </pattern>
    <linearGradient
       x1="150.49463"
       y1="42.808048"
       x2="345.53265"
       y2="242.17987"
       id="linearGradient3789"
       xlink:href="#linearGradient1754"
       gradientUnits="userSpaceOnUse"
       gradientTransform="scale(1.000071,0.999929)" />
    <linearGradient
       x1="299.37338"
       y1="252.27031"
       x2="411.72696"
       y2="252.27031"
       id="linearGradient3791"
       xlink:href="#linearGradient1767"
       gradientUnits="userSpaceOnUse"
       gradientTransform="matrix(0.697599,0,0,1.47183,0,-11.82638)" />
    <linearGradient
       x1="414.13153"
       y1="240.14357"
       x2="302.99097"
       y2="240.80186"
       id="linearGradient3793"
       xlink:href="#linearGradient1767"
       gradientUnits="userSpaceOnUse"
       gradientTransform="scale(0.689104,1.45116)" />
    <radialGradient
       cx="212.59842"
       cy="70.866119"
       r="35.433071"
       fx="212.59842"
       fy="70.866119"
       id="radialGradient3795"
       xlink:href="#linearGradient2411"
       gradientUnits="userSpaceOnUse" />
    <linearGradient
       x1="156.33752"
       y1="184.92068"
       x2="264.56921"
       y2="184.92068"
       id="linearGradient3797"
       xlink:href="#linearGradient2419"
       gradientUnits="userSpaceOnUse"
       gradientTransform="scale(1.19593,0.836169)" />
  </defs>
  <metadata
     id="metadata4">
    <rdf:RDF>
      <cc:Work
         rdf:about="">
        <dc:format>image/svg+xml</dc:format>
        <dc:type
           rdf:resource="http://purl.org/dc/dcmitype/StillImage" />
        <dc:title />
      </cc:Work>
    </rdf:RDF>
  </metadata>
  <path
     style="fill:#74a84f;fill-opacity:1;stroke:none"
     d="m 341.58361,43.808962 c -69.468,0.08373 -122.00195,54.74172 -122.24916,120.245088 0.60114,66.59275 48.84454,118.4089 124.42503,118.58457 69.35476,0.70444 120.01903,-54.54206 119.50071,-116.52322 C 463.73936,91.445363 409.05005,44.530896 341.58361,43.808962 z m -55.94258,33.153284 c 2.80973,3.3e-5 5.55302,0.481186 8.07359,1.431498 2.52054,0.950371 4.66814,2.451044 6.52759,4.351726 1.90068,1.900757 3.35054,4.233203 4.46625,7.042921 1.11558,2.768471 1.71774,6.056673 1.71777,9.734137 -3e-5,3.677512 -0.60219,6.867102 -1.71777,9.676832 -1.07442,2.80979 -2.56557,5.14223 -4.46625,7.04296 -1.85945,1.85941 -4.00705,3.28683 -6.52759,4.2372 -2.52057,0.95035 -5.22249,1.43148 -8.07359,1.43148 -2.85112,0 -5.56912,-0.48113 -8.13086,-1.43148 -2.52064,-0.95037 -4.62694,-2.37779 -6.52759,-4.2372 -1.85949,-1.90073 -3.3506,-4.23317 -4.46625,-7.04296 -1.11564,-2.80973 -1.71777,-5.99932 -1.71777,-9.676832 0,-3.677464 0.60213,-6.965666 1.71777,-9.734137 1.11565,-2.809718 2.56545,-5.142164 4.46625,-7.042921 1.94206,-1.900682 4.236,-3.401355 6.75663,-4.351726 2.52047,-0.950312 5.09208,-1.431465 7.90182,-1.431498 z m -0.0571,6.985678 c -1.98334,4.6e-5 -3.69779,0.344228 -5.26787,1.08792 -1.57027,0.743829 -3.0071,1.785751 -4.12269,3.149296 -1.0743,1.363565 -1.82649,2.966371 -2.40491,4.867054 -0.57852,1.900753 -0.85891,4.115104 -0.85891,6.470334 0,2.355252 0.28039,4.471072 0.85891,6.413072 0.57842,1.90071 1.33061,3.5035 2.40491,4.86704 1.11559,1.32227 2.55242,2.29103 4.12269,3.03478 1.57008,0.74378 3.28453,1.08793 5.26787,1.08793 1.94202,0 3.75498,-0.34415 5.32513,-1.08793 1.57009,-0.74375 2.81928,-1.71251 3.89364,-3.03478 1.11557,-1.36354 2.05545,-2.96633 2.63396,-4.86704 0.57837,-1.942 0.85885,-4.05782 0.85888,-6.413072 -3e-5,-2.35523 -0.28051,-4.569581 -0.85888,-6.470334 -0.57851,-1.942003 -1.51839,-3.544789 -2.63396,-4.867054 -1.07436,-1.363545 -2.32355,-2.405467 -3.89364,-3.149296 -1.57015,-0.743692 -3.38311,-1.087874 -5.32513,-1.08792 z m 76.89958,3.77914 c 4.46254,3e-5 7.99931,1.411504 10.47851,4.179934 2.52056,2.768471 3.77908,6.872509 3.77914,12.368072 -6e-5,0.41324 -0.0749,0.89435 -0.11465,1.4315 -5e-5,0.49585 -0.075,1.01828 -0.1145,1.43146 l -21.30055,0 c 0.20649,2.6032 1.07969,4.50882 2.69118,5.95501 1.65284,1.40486 4.00117,2.17586 7.10019,2.17586 1.81813,0 3.49406,-0.1848 4.98157,-0.51532 1.52884,-0.33054 2.73962,-0.60155 3.60734,-0.97343 l 0.97343,6.06951 c -0.41326,0.20662 -0.97402,0.38194 -1.71777,0.62986 -0.70252,0.20666 -1.56909,0.40732 -2.51942,0.57259 -0.90904,0.20665 -1.84587,0.39137 -2.92027,0.51532 -1.07426,0.1239 -2.14816,0.22906 -3.26376,0.22906 -2.85116,0 -5.27921,-0.49058 -7.3865,-1.31697 -2.10739,-0.86769 -3.90437,-1.94805 -5.26789,-3.43557 -1.36363,-1.52882 -2.37364,-3.35773 -3.03475,-5.38241 -0.66116,-2.06595 -0.97341,-4.26146 -0.97341,-6.69936 0,-2.85106 0.37604,-5.352343 1.20246,-7.500989 0.86773,-2.148632 1.97332,-3.977493 3.3783,-5.382409 1.40486,-1.446184 3.04894,-2.561344 4.86708,-3.263812 1.81803,-0.743716 3.65336,-1.087876 5.55416,-1.087906 z m -36.35979,0.114506 c 2.56174,3e-5 4.84645,0.417408 6.87114,1.202433 2.0246,0.785118 3.80572,1.890845 5.21059,3.378339 1.44618,1.446206 2.52001,3.217829 3.26382,5.325124 0.785,2.066025 1.20241,4.497014 1.20243,7.100194 -2e-5,2.4792 -0.42685,4.69062 -1.08793,6.7566 -0.61986,2.06602 -1.49293,3.83764 -2.6912,5.32517 -1.19834,1.4875 -2.64823,2.66642 -4.46625,3.49283 -1.77674,0.82641 -3.85419,1.14519 -6.12677,1.14519 -1.52882,0 -2.95629,-0.14356 -4.23719,-0.51535 -1.28093,-0.37189 -2.32292,-0.74792 -3.14928,-1.20246 l 0,12.59712 -7.50101,0 0,-42.830164 c 1.52872,-0.413158 3.43743,-0.830514 5.66869,-1.202424 2.23131,-0.371858 4.56372,-0.572572 7.04296,-0.572602 z m 70.65828,0 c 2.64441,3e-5 4.86545,0.34416 6.6421,1.087906 1.77682,0.702478 3.20409,1.712555 4.23724,3.03479 1.07422,1.280946 1.76268,2.835896 2.17584,4.695279 0.45453,1.818096 0.74434,3.936865 0.74437,6.126755 l 0,18.15129 -7.50099,0 0,-16.94883 c -7e-5,-1.73541 -0.15275,-3.26793 -0.40083,-4.466243 -0.2065,-1.23958 -0.55081,-2.233731 -1.08794,-2.977499 -0.49593,-0.785066 -1.20955,-1.387208 -2.11861,-1.717778 -0.86774,-0.371858 -1.98287,-0.572572 -3.26376,-0.572592 -0.95045,2e-5 -1.88728,0.104897 -2.92027,0.229022 -1.03303,0.124146 -1.79453,0.260961 -2.29037,0.34357 l 0,26.11035 -7.50101,0 0,-31.320994 c 1.44631,-0.413158 3.35481,-0.830514 5.66871,-1.202424 2.31393,-0.371858 4.80574,-0.572572 7.61552,-0.572602 z m -34.18397,6.126755 c -1.15694,5.2e-5 -2.167,0.289922 -3.03473,0.744388 -0.86779,0.41322 -1.67052,0.900845 -2.29039,1.603262 -0.57846,0.702479 -0.98642,1.495867 -1.31698,2.404912 -0.33063,0.909036 -0.62044,1.912613 -0.74437,2.862973 l 14.02858,0 c -4e-5,-1.03299 -0.11149,-2.068462 -0.40081,-2.977497 -0.28932,-0.950356 -0.73846,-1.686498 -1.31698,-2.347657 -0.53712,-0.702406 -1.23497,-1.288589 -2.06134,-1.660509 -0.78507,-0.413189 -1.74736,-0.62982 -2.86298,-0.629872 z m -37.21872,0.286323 c -0.70246,2e-5 -1.39067,0.03175 -2.17586,0.11464 -0.7437,0.04137 -1.54661,0.251508 -2.29037,0.458066 l 0,18.494836 c 0.66113,0.45454 1.55955,0.90377 2.63393,1.31697 1.11559,0.37189 2.36772,0.51534 3.60736,0.51534 2.72708,0 4.60086,-0.8318 5.84049,-2.69121 1.28089,-1.8594 1.94678,-4.36065 1.94681,-7.501 -3e-5,-3.34689 -0.70431,-5.985139 -2.23313,-7.844555 -1.48755,-1.859373 -3.98236,-2.862943 -7.32923,-2.862974 z M 281.2321,137.82916 c 0.54572,-0.0327 1.08203,0 1.66054,0 2.68577,6e-5 5.14867,0.23902 7.21469,0.8589 2.10729,0.57856 3.78328,1.24445 4.98157,1.94682 l -2.46215,6.29857 c -1.40489,-0.78509 -2.88669,-1.41911 -4.58076,-1.83231 -1.65281,-0.41317 -3.49115,-0.57256 -5.26789,-0.5726 -2.10733,4e-5 -3.66876,0.44932 -4.86706,1.31695 -1.15697,0.86778 -1.71778,2.03727 -1.71778,3.60736 0,0.9504 0.14295,1.81703 0.51534,2.51944 0.41321,0.66114 0.95804,1.18067 1.66052,1.71777 0.74377,0.53724 1.62631,1.09158 2.57668,1.54602 0.9917,0.45456 1.99233,0.90379 3.14927,1.31697 2.02469,0.74372 3.86959,1.44801 5.43968,2.23309 1.61148,0.74378 2.99106,1.67419 4.06541,2.74847 1.11569,1.03302 1.88366,2.27573 2.46216,3.7219 0.57848,1.40488 0.91611,3.18596 0.91617,5.2106 -6e-5,3.88413 -1.41155,6.89843 -4.17997,9.04701 -2.72714,2.10736 -6.67827,3.14929 -11.96724,3.14929 -1.77673,0 -3.37959,-0.21018 -4.86705,-0.45807 -1.44625,-0.20652 -2.79392,-0.41388 -3.95091,-0.74439 -1.11562,-0.33059 -2.09391,-0.64288 -2.92026,-0.9734 -0.82638,-0.37189 -1.451,-0.68417 -1.94682,-0.97343 l 2.29038,-6.47031 c 1.11566,0.6199 2.5655,1.26976 4.46626,1.88955 1.90072,0.6198 4.24262,0.9734 6.9284,0.9734 2.80976,0 4.84578,-0.48109 6.12678,-1.43147 1.28092,-0.95037 1.94677,-2.27268 1.94682,-4.00818 -5e-5,-1.03296 -0.28987,-2.00465 -0.74437,-2.74847 -0.41317,-0.74367 -1.06318,-1.36838 -1.88958,-1.94682 -0.78509,-0.61978 -1.76329,-1.10738 -2.9202,-1.60327 -1.15692,-0.5371 -2.40614,-1.16466 -3.89367,-1.66051 -1.48752,-0.53706 -2.94691,-1.09789 -4.35172,-1.71779 -1.36357,-0.66113 -2.53306,-1.45446 -3.60738,-2.40488 -1.03303,-0.95037 -1.97281,-2.05607 -2.63393,-3.37834 -0.61981,-1.32224 -0.85888,-2.95032 -0.85888,-4.8098 0,-3.8841 1.32236,-6.91427 4.00817,-9.10427 2.35005,-1.95232 5.39862,-3.03542 9.21878,-3.2638 z m 28.22899,1.60326 0,9.79141 11.56641,0 0,6.29854 -11.56641,0 0,13.16969 c 0,2.60322 0.37604,4.55312 1.20243,5.66869 0.82638,1.11567 2.25381,1.66054 4.23719,1.66054 1.36359,0 2.57443,-0.1693 3.60737,-0.45807 1.07441,-0.28928 1.89958,-0.49639 2.51942,-0.7444 l 1.25973,5.84049 c -0.86772,0.37185 -2.0307,0.71613 -3.43558,1.08795 -1.40489,0.4132 -3.02361,0.6871 -4.92435,0.6871 -2.31397,0 -4.32761,-0.23902 -5.89772,-0.85889 -1.52885,-0.61976 -2.75557,-1.59152 -3.66462,-2.74847 -0.90902,-1.19829 -1.51765,-2.58439 -1.88956,-4.2372 -0.37187,-1.69404 -0.51534,-3.63466 -0.51534,-5.78322 l 0,-28.05718 7.50103,-1.31698 z m 116.98126,0 0,9.79141 11.56643,0 0,6.29854 -11.56643,0 0,13.16969 c 0,2.60322 0.37604,4.55312 1.20247,5.66869 0.82634,1.11567 2.25381,1.66054 4.23719,1.66054 1.36353,0 2.57436,-0.1693 3.60735,-0.45807 1.07433,-0.28928 2.01408,-0.49639 2.63394,-0.7444 l 1.20247,5.84049 c -0.86784,0.37185 -1.9735,0.71613 -3.37833,1.08795 -1.40494,0.4132 -3.13814,0.6871 -5.03885,0.6871 -2.3139,0 -4.21297,-0.23902 -5.7832,-0.85889 -1.52879,-0.61976 -2.75568,-1.59152 -3.66461,-2.74847 -0.90907,-1.19829 -1.5749,-2.58439 -1.94682,-4.2372 -0.37187,-1.69404 -0.57258,-3.63466 -0.57258,-5.78322 l 0,-28.05718 7.50097,-1.31698 z m -62.24113,9.04701 c 4.46248,7e-5 7.88475,1.35423 10.36396,4.1227 2.52051,2.76841 3.77913,6.92978 3.77915,12.42532 -2e-5,0.41325 -0.0751,0.83713 -0.11451,1.37424 -3e-5,0.49586 0.0397,1.01836 0,1.43147 l -21.4151,0 c 0.20655,2.60323 1.07967,4.68063 2.69122,6.1268 1.65279,1.40487 4.11559,2.06133 7.2147,2.06133 1.81807,0 3.37947,-0.24204 4.86704,-0.57258 1.52882,-0.33057 2.73968,-0.60159 3.60737,-0.97342 l 1.08794,6.12677 c -0.41333,0.20655 -0.974,0.382 -1.71779,0.62984 -0.70247,0.20662 -1.56919,0.3501 -2.51943,0.51536 -0.90904,0.20654 -1.96052,0.4486 -3.03475,0.57258 -1.07434,0.12441 -2.14812,0.22904 -3.2638,0.22904 -2.85108,0 -5.33637,-0.49054 -7.44373,-1.31698 -2.10722,-0.86767 -3.84712,-2.00529 -5.21061,-3.49282 -1.36361,-1.52884 -2.37368,-3.30051 -3.03477,-5.32514 -0.66112,-2.06599 -0.97341,-4.31871 -0.97341,-6.75666 0,-2.85102 0.37605,-5.35228 1.20244,-7.50097 0.8677,-2.14861 2.0879,-3.92022 3.49285,-5.32516 1.4049,-1.44616 2.93439,-2.56129 4.75253,-3.26377 1.81812,-0.74371 3.76789,-1.08788 5.6687,-1.08795 z m 34.18396,0 c 4.46249,7e-5 7.94198,1.35423 10.42123,4.1227 2.52048,2.76841 3.72181,6.92978 3.72189,12.42532 -8e-5,0.41325 0.0397,0.83713 0,1.37424 -8e-5,0.49586 -0.0748,1.01836 -0.11451,1.43147 l -21.30057,0 c 0.20656,2.60323 1.07973,4.68063 2.69119,6.1268 1.65284,1.40487 4.00121,2.06133 7.10018,2.06133 1.8181,0 3.49406,-0.24204 4.98159,-0.57258 1.52882,-0.33057 2.73962,-0.60159 3.60735,-0.97342 l 0.97342,6.12677 c -0.41327,0.20655 -1.03135,0.382 -1.77506,0.62984 -0.70246,0.20662 -1.51188,0.3501 -2.46214,0.51536 -0.90911,0.20654 -1.90317,0.4486 -2.97749,0.57258 -1.07434,0.12441 -2.14814,0.22904 -3.26381,0.22904 -2.85107,0 -5.39366,-0.49054 -7.50101,-1.31698 -2.10737,-0.86767 -3.73255,-2.00529 -5.0961,-3.49282 -1.36354,-1.52884 -2.37362,-3.30051 -3.03475,-5.32514 -0.66115,-2.06599 -0.97344,-4.31871 -0.97344,-6.75666 0,-2.85102 0.37613,-5.35228 1.20247,-7.50097 0.8678,-2.14861 1.91618,-3.92022 3.32107,-5.32516 1.40481,-1.44616 3.10621,-2.56129 4.92431,-3.26377 1.81809,-0.74371 3.6534,-1.08788 5.55419,-1.08795 z m -58.69105,0.11464 c 0.49579,5e-5 1.11389,0.0317 1.77503,0.11464 0.6611,0.0412 1.28568,0.16257 1.94683,0.28631 0.66108,0.0828 1.32698,0.17827 1.94682,0.34356 0.61981,0.12391 1.05957,0.21975 1.43149,0.34355 l -1.20245,6.41306 c -0.61985,-0.20652 -1.51832,-0.4232 -2.63396,-0.62984 -1.07432,-0.24781 -2.33288,-0.45804 -3.77912,-0.45809 -0.82645,5e-5 -1.7981,0.177 -2.74845,0.34354 -0.90906,0.16457 -1.46044,0.27694 -1.8323,0.40084 l 0,25.93857 -7.50099,0 0,-30.80563 c 1.44622,-0.53713 3.17648,-1.09143 5.32512,-1.546 2.19002,-0.49579 4.62747,-0.74435 7.27198,-0.74439 z m 24.50709,6.18401 c -1.157,9e-5 -2.16702,0.23268 -3.03477,0.68715 -0.86779,0.41324 -1.55606,0.90092 -2.17587,1.60325 -0.57855,0.70252 -1.10098,1.49596 -1.43147,2.40492 -0.33056,0.90908 -0.50594,1.85536 -0.62987,2.80573 l 13.91409,0 c -6e-5,-1.03301 -0.16858,-2.01117 -0.45807,-2.92027 -0.28936,-0.95032 -0.68124,-1.74368 -1.25972,-2.4049 -0.53718,-0.70237 -1.23495,-1.23123 -2.06136,-1.60325 -0.78505,-0.4131 -1.74739,-0.57254 -2.86296,-0.57263 z m 34.29847,0 c -1.15692,9e-5 -2.16706,0.23268 -3.03476,0.68715 -0.86772,0.41324 -1.67054,0.90092 -2.29038,1.60325 -0.5784,0.70252 -0.98644,1.49596 -1.31698,2.40492 -0.33052,0.90908 -0.62044,1.85536 -0.74437,2.80573 l 13.91406,0 c -1e-5,-1.03301 -0.16874,-2.01117 -0.45807,-2.92027 -0.2893,-0.95032 -0.62394,-1.74368 -1.20242,-2.4049 -0.53719,-0.70237 -1.23506,-1.23123 -2.06135,-1.60325 -0.78516,-0.4131 -1.69005,-0.57254 -2.80573,-0.57263 z m -132.67041,44.71976 7.27195,0 c 0.90904,1.57025 1.91914,3.51062 3.03476,5.7832 1.11573,2.27267 2.22138,4.63697 3.37832,7.15746 1.15694,2.47929 2.26259,5.0124 3.37833,7.61551 1.15687,2.56185 2.19886,4.91019 3.14926,7.10018 0.95031,-2.18999 2.03361,-4.53833 3.14928,-7.10018 1.11561,-2.60311 2.22124,-5.13622 3.37831,-7.61551 1.15691,-2.52049 2.37711,-4.88479 3.49283,-7.15746 1.11565,-2.27258 2.06842,-4.21295 2.97751,-5.7832 l 7.04291,0 c 0.37191,3.14036 0.75733,6.46702 1.08797,10.02041 0.33048,3.5123 0.61094,7.16056 0.85887,10.87931 0.28904,3.67749 0.595,7.34826 0.80163,11.10837 0.24787,3.71888 0.4646,7.32584 0.62988,10.87932 l -7.73008,0 c -0.16456,-4.99977 -0.38198,-10.05653 -0.62985,-15.34557 -0.20654,-5.28887 -0.51899,-10.5016 -0.97342,-15.46011 -0.45457,0.95036 -1.04077,2.17073 -1.6605,3.49287 -0.61991,1.32226 -1.2444,2.78164 -1.94683,4.35172 -0.70244,1.52891 -1.43217,3.04254 -2.17585,4.6953 -0.70244,1.65285 -1.35893,3.29681 -2.06136,4.86703 -0.66109,1.52895 -1.31114,2.98819 -1.88956,4.35174 -0.57849,1.32228 -1.07571,2.42802 -1.48876,3.37831 l -5.78321,0 c -0.41325,-0.95029 -0.96752,-2.12926 -1.54602,-3.49283 -0.57844,-1.36355 -1.24446,-2.82289 -1.94682,-4.35172 -0.66115,-1.57024 -1.31763,-3.09968 -2.06133,-4.75253 -0.70249,-1.65276 -1.47341,-3.28094 -2.17588,-4.80982 -0.70239,-1.52889 -1.32707,-2.91494 -1.94683,-4.2372 -0.61978,-1.36347 -1.20603,-2.58377 -1.66052,-3.49287 -0.45447,4.95851 -0.7255,10.17124 -0.97343,15.46011 -0.2065,5.28904 -0.35007,10.3458 -0.51532,15.34557 l -7.73005,0 c 0.1646,-3.55348 0.3088,-7.19242 0.51535,-10.99384 0.24784,-3.80137 0.55364,-7.61858 0.80165,-11.3374 0.28926,-3.76004 0.64281,-7.36703 0.97339,-10.87932 0.33056,-3.51213 0.60155,-6.70173 0.97342,-9.67685 z m 62.0121,9.67685 c 2.47916,6e-5 4.60439,0.35369 6.29855,0.97343 1.6941,0.61987 3.07375,1.51829 4.06544,2.63392 1.03289,1.11568 1.76265,2.39671 2.17587,4.00819 0.45447,1.5702 0.6298,3.36719 0.62984,5.26787 l 0,19.6973 c -1.15699,0.2478 -2.96994,0.5283 -5.32513,0.85889 -2.31388,0.37189 -4.91083,0.51533 -7.84457,0.51533 -1.94204,0 -3.71366,-0.14308 -5.32512,-0.51533 -1.61145,-0.37194 -2.96576,-1.00589 -4.1227,-1.83231 -1.11565,-0.8264 -2.08743,-1.94157 -2.74845,-3.2638 -0.61982,-1.32227 -0.85892,-2.98228 -0.85892,-4.92431 0,-1.85936 0.38554,-3.41435 1.08796,-4.69529 0.74376,-1.28094 1.68062,-2.24962 2.92022,-3.03479 1.2396,-0.82632 2.68294,-1.38719 4.29448,-1.71775 1.65275,-0.37187 3.43387,-0.57254 5.21059,-0.57262 0.82641,8e-5 1.6104,-0.0114 2.51944,0.11451 0.90903,0.0841 1.88724,0.32477 2.92026,0.57262 l 0,-1.20246 c -8e-5,-0.86765 -0.13726,-1.73422 -0.34357,-2.51941 -0.20657,-0.78504 -0.55077,-1.48289 -1.08795,-2.06135 -0.49587,-0.61981 -1.19354,-1.10102 -2.06134,-1.43149 -0.82634,-0.33063 -1.86838,-0.51529 -3.14925,-0.51533 -1.73562,4e-5 -3.36361,0.15308 -4.8098,0.40081 -1.44623,0.24777 -2.58384,0.52841 -3.49286,0.8589 l -0.97341,-6.06952 c 0.95038,-0.33053 2.41909,-0.64278 4.23723,-0.97342 1.81807,-0.33051 3.71717,-0.57254 5.78319,-0.5726 z m 33.84042,0.11463 c 2.56186,7e-5 4.84636,0.41737 6.87116,1.20247 2.02461,0.78511 3.8057,1.89087 5.21059,3.3783 1.44621,1.44629 2.52002,3.2179 3.26381,5.32516 0.78504,2.06607 1.20243,4.49702 1.20244,7.10018 -1e-5,2.47919 -0.42687,4.69067 -1.08792,6.75661 -0.61993,2.06614 -1.49295,3.83774 -2.69121,5.32515 -1.19833,1.48756 -2.64827,2.66632 -4.46626,3.49283 -1.77672,0.82644 -3.85419,1.25971 -6.12676,1.25971 -1.52886,0 -2.95628,-0.14309 -4.2372,-0.51533 -1.28088,-0.37193 -2.32293,-0.86246 -3.14929,-1.31698 l 0,12.65436 -7.501,0 0,-42.88741 c 1.52875,-0.41313 3.43748,-0.83055 5.6687,-1.20246 2.23131,-0.37184 4.56374,-0.57252 7.04294,-0.57259 z m -0.74438,6.52758 c -0.70238,8e-5 -1.39077,0.0333 -2.17588,0.11464 -0.74374,0.0398 -1.54658,0.13726 -2.29038,0.34358 l 0,18.49484 c 0.66109,0.45455 1.55967,0.90379 2.63395,1.31694 1.11568,0.37188 2.31049,0.51537 3.55009,0.51537 2.72707,0 4.65811,-0.83172 5.89776,-2.69121 1.28087,-1.85937 1.94677,-4.36068 1.9468,-7.50099 -3e-5,-3.34694 -0.76155,-5.9851 -2.29037,-7.84458 -1.48751,-1.85939 -3.92504,-2.74839 -7.27197,-2.74845 z m -31.55009,12.0819 c -0.82638,0 -1.76624,0.10399 -2.63394,0.22904 -0.82645,0.1244 -1.58794,0.29926 -2.29038,0.62984 -0.66116,0.33056 -1.07554,0.81169 -1.48874,1.4315 -0.41327,0.57845 -0.68712,1.3814 -0.68712,2.29038 0,1.77674 0.54477,3.01942 1.6605,3.72186 1.11561,0.66113 2.68001,0.97342 4.58077,0.97342 2.3139,0 4.01238,-0.0974 5.21066,-0.34355 l 0,-8.35991 c -0.41332,-0.12439 -0.99005,-0.21971 -1.77508,-0.34354 -0.78511,-0.1244 -1.62629,-0.22904 -2.57667,-0.22904 z"
     id="path6015"
     inkscape:connector-curvature="0" />
  <path
     style="fill:#74a84f;fill-opacity:1;stroke:none"
     d="m 444.74297,9.211041 -41.65029,10.361444 c 17.62665,7.290791 37.88421,21.299817 52.49195,34.900956 z M 9.782829,10.101538 35.893962,109.03618 c 54.322641,15.9992 101.254528,31.1945 101.529828,30.9121 0.29161,-0.29922 -9.52112,-49.499132 -21.91544,-104.60005 z M 227.76299,9.3944312 c 3.90966,16.3749048 5.15426,20.3837488 8.60156,34.7875068 10.89893,-8.763607 25.22908,-18.011084 37.60016,-23.592277 z m -5.9474,0.2256218 -100.79866,25.571834 c 13.35763,57.995845 22.53136,102.541993 23.13792,103.172013 0.58047,0.60285 18.718,-1.2427 37.94585,-5.65307 9.04504,-35.799243 22.5687,-57.574093 49.39034,-84.764899 -2.87856,-12.347222 -6.24762,-23.91953 -9.67545,-38.325878 z m 119.33248,4.043488 c -39.64856,-0.01126 -79.30136,14.70981 -109.5316,44.129266 -54.22621,52.777283 -56.10416,140.112403 -13.06068,198.977433 l -41.85354,39.37992 c 0.46693,0.37077 28.49603,27.11081 28.49603,27.11081 l 39.5778,-38.78626 c 67.80307,47.43417 151.67733,39.32078 205.90356,-13.45644 60.46047,-58.84489 60.4599,-154.38059 0,-213.225463 C 420.44941,28.37036 380.79662,13.672101 341.14807,13.663541 z m 0,25.131916 c 33.03916,0.01126 66.03501,12.285649 91.22684,36.807364 50.38368,49.037239 50.48316,128.666929 0.0987,177.704369 -50.38371,49.03739 -132.26791,49.03726 -182.65161,0 -50.38374,-49.03744 -50.38374,-128.66697 0,-177.704369 25.19188,-24.518624 58.28667,-36.815937 91.32583,-36.807364 z M 36.253129,115.76342 10.955669,217.32825 c 37.48507,10.61602 63.321159,19.12425 101.229401,28.00257 8.00414,-24.72185 18.4444,-59.63443 24.963,-98.82826 -25.2801,-7.86578 -44.958547,-13.95864 -100.894941,-30.73914 z m 145.198441,25.14279 -37.43788,5.50402 c -7.24319,30.36361 -19.11841,76.64787 -24.97751,99.13959 29.12173,-7.10919 42.09309,-10.3408 73.86523,-16.71502 -11.15256,-26.59089 -15.7189,-59.90006 -11.44984,-87.92859 z m -170.573733,82.9842 11.075168,44.15952 c 51.414072,19.49679 55.244596,58.53016 82.816575,53.13322 l 18.94851,-18.45381 C 118.22307,279.96124 113.2213,254.39887 111.67584,252.85343 111.31904,252.49667 10.877837,223.89041 10.877837,223.89041 z M 210.94699,329.85222 c 10.23076,-2.00506 29.10664,-4.58811 37.60666,-5.60349 -1.69001,-7.64695 -3.46549,-17.86461 -5.76249,-26.53053 m -32.9425,-41.34372 c -4.74053,-6.48305 -10.71067,-14.99473 -14.33371,-21.95248 -27.92665,6.07731 -75.72311,17.12121 -77.06457,18.28365 -0.5666,0.491 4.5884,22.16864 10.26251,44.69645 13.87822,-12.79555 32.2956,-12.43405 42.86703,-5.3368 M 458.7931,275.7676 c -38.36412,31.86759 -60.39362,40.25272 -103.51441,47.06591 2.10502,10.58347 2.64467,24.34624 3.34175,26.45239 0.58865,1.77856 40.77439,-8.66 112.25838,-26.73739 z m -432.981256,8.50923 10.898392,42.86661 c 0,0 22.942744,5.76419 48.819353,12.00001 l 7.564543,-6.5817 C 54.714436,318.95129 54.181865,290.4666 25.811844,284.27683 z m 222.427296,9.49868 -0.1979,0.19789 6.39018,29.94717 c 1.7906,-0.17515 18.44347,4.59111 35.20213,8.74801 10e-4,-6.58161 -0.51663,-13.55866 -0.43163,-18.31262 -14.3671,-4.84781 -28.17218,-11.72066 -40.96302,-20.58045 z M 135.04661,301.88896 10.87122,422.0076 c -10.20777048,9.87929 -10.17996678,25.90997 0,35.81793 l 28.397078,27.60552 c 10.179962,9.90794 26.500658,9.87927 36.70842,0 L 200.1521,365.3124 c 10.20779,-9.8793 10.17997,-25.90997 0,-35.81793 l -28.39709,-27.60551 c -11.03071,-9.73298 -27.1518,-8.97218 -36.7084,0 z m 165.92995,15.93006 -0.125,17.12796 c 21.45776,5.32498 47.14257,14.36437 51.66748,14.41455 0,0 -2.86319,-20.72978 -3.63832,-25.99523 -16.41988,-0.13892 -30.33737,-0.91684 -47.90416,-5.54728 z m 170.10014,11.6808 c -58.21673,14.8402 -113.30303,27.72276 -113.47204,27.92742 -0.14914,0.18066 -8.00207,46.86052 -20.89715,100.6529 L 444.74297,432.39679 z M 36.053233,331.97345 16.412114,407.16593 81.950252,343.6634 c -14.03395,-3.50486 -28.617938,-7.40688 -45.897019,-11.68995 z m 177.379557,2.72564 c 3.71898,6.95033 7.20921,27.50836 -13.76461,44.19644 10.98583,6.69521 25.62083,9.46887 35.30174,10.63701 5.33897,-19.15823 11.87066,-48.38877 13.23446,-59.29309 -9.54416,1.79906 -27.39924,3.37492 -34.77159,4.45964 z m 40.90002,-4.31864 c -0.12414,0.10501 -6.34586,29.17054 -13.18334,59.19447 43.38568,-6.85311 46.94408,-26.41413 48.25553,-51.08957 -17.80261,-4.33375 -34.7026,-9.15221 -35.07219,-8.1049 z m 46.76875,11.67404 c -3.77083,44.06426 -25.5641,52.42194 -62.60247,58.20644 -3.76381,13.72527 -4.82809,18.25959 -9.30011,32.93897 l 102.24714,24.44222 c 12.74323,-53.43525 20.12228,-100.18241 19.8985,-100.42275 -0.33415,-0.35883 -25.80047,-9.16171 -50.24306,-15.16488 z M 191.0492,386.58547 c -35.49339,34.46956 -39.77663,38.44856 -72.85127,71.17506 L 222.59265,433.2939 c 4.06636,-14.28925 8.89111,-29.88211 9.86321,-33.81799 -16.06151,-0.54018 -30.10861,-5.09495 -41.40666,-12.89044 z"
     id="path5801"
     inkscape:connector-curvature="0"
     sodipodi:nodetypes="cccccccccccccccccccscccccsssccssssccccccccccccccccccccccccccccccccccccccccscccccccscccccccccccccccccccccccccccccccccccc" />
  <g
     style="fill:#74a84f;fill-opacity:1;stroke:none;display:block"
     id="layer4"
     transform="matrix(0.08798405,0,0,0.08595212,3.1986333,450.92568)" />
</svg>
